<svg width="76" height="53" viewBox="0 0 76 53" fill="none" xmlns="http://www.w3.org/2000/svg">
<path d="M0.273846 49.5C-0.682156 52.368 1.04866 52.6761 2.63476 52.3458C3.38416 52.1897 3.95313 51.6131 4.27498 50.9186L13.2738 31.5H24.2739L22.2739 36.5L19.7739 43.5H25.2739C25.7148 43.5 26.1152 43.4838 26.4751 43.4568C28.0375 43.3394 29.4168 42.5473 30.6599 41.5935C32.16 40.4426 34.203 38.812 36.2739 37C39.4739 34.2 39.5 34.5 39.5 35L37.2739 39.5C36.0739 42.3 37.4406 43.3333 38.2739 43.5H54.2739L60.2739 38.5L63.2739 43H72.7739L67.5122 34.8682C67.3758 34.6575 67.4168 34.3784 67.6079 34.2158L75.5 27.5H68.5L64.6074 30.5276C64.2817 30.7809 63.8085 30.6989 63.587 30.3507L61.7739 27.5H52.7739L55.2739 31.5C56.1073 32.6667 57.9 35.1 57.5 35.5C57.1 35.9 53.4406 38.3333 51.7739 39.5H47.7739C47.2782 39.5 46.8977 39.468 46.6086 39.4189C45.9674 39.31 45.8615 38.6825 45.9809 38.0431C46.2586 36.5559 46.6948 33.9214 48.2739 29.5C50.2739 23.9 46.3333 25 44 26.5L41.7739 28C39.7739 29.5 35.2739 32.9 33.2739 34.5C31.2739 36.1 31.4406 35.1667 31.7739 34.5L33.7739 27.5H15.2739L19.7739 17L22.7739 11C23.0111 10.5257 23.2521 10.1087 23.4901 9.7436C24.664 7.94276 26.8698 7.5 29.0195 7.5H29.1684C30.1714 7.5 31.1101 7.00055 31.6462 6.15277C32.3619 5.021 33.2346 3.57869 33.7739 2.5C34.5739 0.9 33.4406 0.5 32.7739 0.5C31.6073 0.333333 27.6 0 24 0C20.4 0 17.5 5 16 8L10.2739 22L8.27393 27H2.77393C1.97399 29.4 5.10729 31.1667 6.77393 31.5C5.10723 36 1.47385 45.9 0.273846 49.5Z" fill="#002D3C"/>
</svg>
