<svg width="34" height="24" viewBox="0 0 34 24" fill="none" xmlns="http://www.w3.org/2000/svg">
<path d="M0.123322 22.2914C-0.307196 23.5829 0.472243 23.7217 1.18651 23.5729C1.52399 23.5026 1.78022 23.243 1.92516 22.9302L5.97763 14.1854H10.9313L10.0306 16.4371L8.90481 19.5894H11.3816C11.5802 19.5894 11.7605 19.5821 11.9226 19.5699C12.6262 19.5171 13.2473 19.1604 13.8071 18.7309C14.4827 18.2126 15.4027 17.4783 16.3353 16.6623C17.7763 15.4013 17.7881 15.5364 17.7881 15.7616L16.7856 17.7881C16.2452 19.049 16.8607 19.5143 17.2359 19.5894H24.4412L27.1432 17.3377L28.4942 19.3642H32.7724L30.4028 15.7022C30.3414 15.6074 30.3599 15.4817 30.446 15.4084L34 12.3841H30.8477L29.0947 13.7475C28.948 13.8616 28.735 13.8247 28.6352 13.6679L27.8187 12.3841H23.7657L24.8916 14.1854C25.2668 14.7108 26.0742 15.8066 25.894 15.9868C25.7139 16.1669 24.066 17.2627 23.3154 17.7881H21.5141C21.2909 17.7881 21.1195 17.7737 20.9893 17.7516C20.7005 17.7025 20.6529 17.4199 20.7066 17.132C20.8317 16.4622 21.0281 15.2759 21.7393 13.2848C22.6399 10.7629 20.8653 11.2583 19.8146 11.9338L18.8121 12.6093C17.9114 13.2848 15.8849 14.8159 14.9843 15.5364C14.0836 16.257 14.1587 15.8366 14.3088 15.5364L15.2094 12.3841H6.87832L8.90481 7.65563L10.2558 4.95364C10.3626 4.74006 10.4711 4.55227 10.5783 4.38785C11.1069 3.57687 12.1003 3.37748 13.0684 3.37748H13.1354C13.5871 3.37748 14.0099 3.15257 14.2513 2.77079C14.5736 2.26111 14.9666 1.6116 15.2094 1.12583C15.5697 0.405298 15.0593 0.225166 14.7591 0.225166C14.2337 0.15011 12.4291 0 10.8079 0C9.18676 0 7.88079 2.25166 7.2053 3.60265L4.62667 9.90728L3.72601 12.1589H1.24919C0.888949 13.2397 2.29997 14.0353 3.05051 14.1854C2.29995 16.2119 0.663719 20.6702 0.123322 22.2914Z" fill="white"/>
</svg>
